# xmcd
#
# Track frame offsets:
#	200
#	26425
#	37142
#	54105
#	63757
#	78907
#	90017
#	104767
#	119880
#	132575
#	146735
#	161277
#	179912
#	191297
#
# Disc length: 2712 seconds
#
# Revision: 0
# Processed by: cddbd v1.5.1PL0 Copyright (c) Steve Scherf et al.
# Submitted via: dBpowerAMP V4.0
#
DISCID=be0a960e
DTITLE=Loleatta Holloway - Cry To Me
DYEAR=1900
DGENRE=Blues
TTITLE0=Cry to me
TTITLE1=We did it
TTITLE2=The show must go on
TTITLE3=Remember me
TTITLE4=So can I
TTITLE5=The man i love
TTITLE6=Our love
TTITLE7=I know where you're coming from
TTITLE8=Love woke me up
TTITLE9=Can i change my mind
TTITLE10=The world don't owe you nothing
TTITLE11=Part time lover, Full time fool
TTITLE12=Only a fool
TTITLE13=Mother of shame
EXTD=Loleatta Holloway, Cry To Me
EXTT0=
EXTT1=
EXTT2=
EXTT3=
EXTT4=
EXTT5=
EXTT6=
EXTT7=
EXTT8=
EXTT9=
EXTT10=
EXTT11=
EXTT12=
EXTT13=
PLAYORDER=
